<?xml version="1.0" encoding="iso-8859-1"?>
<!-- Generator: Adobe Illustrator 16.0.0, SVG Export Plug-In . SVG Version: 6.00 Build 0)  -->
<!DOCTYPE svg PUBLIC "-//W3C//DTD SVG 1.1//EN" "http://www.w3.org/Graphics/SVG/1.1/DTD/svg11.dtd">
<svg version="1.1" id="Capa_1" xmlns="http://www.w3.org/2000/svg" xmlns:xlink="http://www.w3.org/1999/xlink" x="0px" y="0px"
	 width="488px" height="488px" viewBox="0 0 488 488" style="enable-background:new 0 0 488 488;" xml:space="preserve">
<g>
	<g>
		<path d="M336.322,2.175H114.889v99.118h221.436V2.175H336.322z M307.328,72.299H143.882v-41.13h163.446V72.299z"/>
		<polygon points="225.604,488 283.596,399.083 167.615,399.083 		"/>
		<path d="M394.316,52.081c0-0.481-0.061-0.947-0.158-1.399L376.297,0l-12.301,4.351l14.576,41.206h-28.109
			c-2.004,0-3.896,0.921-5.133,2.496c-1.236,1.576-1.68,3.633-1.205,5.578l14.498,59.257c0.713,2.921,3.33,4.974,6.336,4.974h8.336
			c2.439,0,4.77-0.437,6.947-1.204v161.109c0,6.66-5.42,12.08-12.08,12.08c-6.662,0-12.082-5.42-12.082-12.08V149.89h-19.758
			v-26.301H114.889v203.976h110.717v14.113H93.682v40.66h263.85v-40.66h-21.207V161.488h8.16v116.279
			c0,13.057,10.621,23.679,23.678,23.679s23.68-10.622,23.68-23.679V106.719c1.574-2.948,2.477-6.309,2.477-9.878v-44.76H394.316z
			 M373.295,104.814h-3.215l-11.307-46.21h22.494V96.84C381.268,101.238,377.691,104.814,373.295,104.814z"/>
	</g>
</g>
<g>
</g>
<g>
</g>
<g>
</g>
<g>
</g>
<g>
</g>
<g>
</g>
<g>
</g>
<g>
</g>
<g>
</g>
<g>
</g>
<g>
</g>
<g>
</g>
<g>
</g>
<g>
</g>
<g>
</g>
</svg>
