<svg xmlns="http://www.w3.org/2000/svg" width="28.469" height="32" viewBox="0 0 28.469 32">
  <g id="icons8_playstore" transform="translate(-17 -21)">
    <path id="Path_167" data-name="Path 167" d="M17.533,21c-.356,0-.533.356-.533.889v30.4a.924.924,0,0,0,.356.711L33.711,37Z" transform="translate(0 0)" fill="#4db6ac"/>
    <path id="Path_168" data-name="Path 168" d="M38.1,32.555l-6.755-3.911S18.9,21.533,18.189,21.178A1.6,1.6,0,0,0,17.3,21L33.478,36.822Z" transform="translate(0.233 0)" fill="#dce775"/>
    <path id="Path_169" data-name="Path 169" d="M17.911,45.9c.356-.178,12.444-7.111,20.266-11.555L33.555,29.9,17.2,45.9A.541.541,0,0,0,17.911,45.9Z" transform="translate(0.156 6.922)" fill="#d32f2f"/>
    <path id="Path_170" data-name="Path 170" d="M37.522,31.233c-.711-.356-6.578-3.733-6.578-3.733h0L26.5,31.944l4.622,4.444c3.556-2.133,6.222-3.556,6.578-3.733C38.233,32.122,38.233,31.589,37.522,31.233Z" transform="translate(7.389 5.055)" fill="#fbc02d"/>
  </g>
</svg>
